<?xml version="1.0" encoding="iso-8859-1"?>
<!-- Generator: Adobe Illustrator 18.0.0, SVG Export Plug-In . SVG Version: 6.00 Build 0)  -->
<!DOCTYPE svg PUBLIC "-//W3C//DTD SVG 1.1//EN" "http://www.w3.org/Graphics/SVG/1.1/DTD/svg11.dtd">
<svg xmlns="http://www.w3.org/2000/svg" xmlns:xlink="http://www.w3.org/1999/xlink" version="1.1" id="Capa_1" x="0px" y="0px" viewBox="0 0 307.698 307.698" style="enable-background:new 0 0 307.698 307.698;" xml:space="preserve" width="512px" height="512px">
<g>
	<g>
		<path d="M187.813,176.988c2.314,9.144,9.726,16.401,19.344,18.234l33.916,6.463c17.882,3.408,30.354,19.702,28.973,37.854    l-3.214,42.249c-0.468,6.156-5.6,10.911-11.773,10.911H52.64c-6.173,0-11.305-4.755-11.773-10.911l-3.214-42.249    c-1.381-18.152,11.09-34.446,28.973-37.854l33.916-6.463c9.044-1.723,16.13-8.249,18.869-16.624    c10.257,8.514,21.573,13.02,33.263,13.02C165.081,191.617,177.068,186.544,187.813,176.988 M172.46,233.708    c1.921,0,3.792-0.988,4.837-2.762c1.026-1.74,2.841-2.874,4.854-3.032l43.402-3.416c3.088-0.243,5.394-2.943,5.151-6.031    c-0.231-2.938-2.685-5.169-5.584-5.169c-0.148,0-0.297,0.006-0.447,0.018l-43.402,3.416c-5.658,0.446-10.757,3.63-13.638,8.52    c-1.573,2.668-0.685,6.107,1.985,7.679C170.512,233.458,171.492,233.708,172.46,233.708 M135.238,233.708    c0.968,0,1.948-0.251,2.842-0.778c2.669-1.572,3.557-5.01,1.984-7.679c-2.881-4.89-7.979-8.075-13.637-8.52l-43.403-3.416    c-0.149-0.012-0.298-0.018-0.445-0.018c-2.895,0-5.355,2.23-5.586,5.169c-0.243,3.088,2.063,5.788,5.151,6.031l43.403,3.416    c2.014,0.159,3.828,1.292,4.854,3.032C131.447,232.721,133.317,233.708,135.238,233.708 M196.296,149.369l-18.451,16.411    c-8.086,7.191-16.554,10.838-25.17,10.838c-8.071,0-16.039-3.217-23.683-9.562l-16.978-14.093l-6.859,20.972    c-1.105,3.38-3.949,5.891-7.42,6.552l-33.916,6.463c-25.405,4.841-43.084,27.939-41.122,53.726l3.214,42.249    c1.057,13.892,12.798,24.773,26.73,24.773h202.418c13.932,0,25.673-10.882,26.73-24.774l3.214-42.249    c1.962-25.788-15.717-48.885-41.122-53.726l-33.916-6.463c-3.697-0.705-6.684-3.523-7.61-7.179L196.296,149.369L196.296,149.369z" fill="#ffffff" fill-opacity="0.1"/>
	</g>
	<g>
		<path d="M152.674,15c32.339,0,58.555,32.151,58.555,71.812c0,39.66-26.216,90.784-58.555,90.784    c-32.339,0-58.555-51.124-58.555-90.784C94.119,47.151,120.335,15,152.674,15 M117.207,70.988c2.785,0,5.42-1.672,6.514-4.417    c5.785-14.517,16.338-22.842,28.954-22.842c3.872,0,7.01-3.138,7.01-7.01c0-3.872-3.138-7.01-7.01-7.01    c-18.383,0-34.076,11.84-41.978,31.672c-1.434,3.596,0.32,7.674,3.917,9.107C115.465,70.828,116.342,70.988,117.207,70.988     M111.878,89.742c3.872,0,7.01-3.139,7.01-7.01s-3.139-7.01-7.01-7.01c-3.872,0-7.01,3.139-7.01,7.01    S108.006,89.742,111.878,89.742 M152.674,0c-20.234,0-39.067,9.43-53.03,26.554C86.409,42.786,79.119,64.186,79.119,86.812    c0,22.35,7.205,47.755,19.273,67.957c14.572,24.393,33.849,37.827,54.282,37.827s39.711-13.434,54.282-37.827    c12.068-20.202,19.273-45.607,19.273-67.957c0-22.625-7.289-44.025-20.525-60.258C191.742,9.43,172.909,0,152.674,0L152.674,0z" fill="#ffffff" fill-opacity="0.1"/>
	</g>
</g>
<g>
</g>
<g>
</g>
<g>
</g>
<g>
</g>
<g>
</g>
<g>
</g>
<g>
</g>
<g>
</g>
<g>
</g>
<g>
</g>
<g>
</g>
<g>
</g>
<g>
</g>
<g>
</g>
<g>
</g>
</svg>
