<?xml version="1.0" encoding="iso-8859-1"?>
<!-- Generator: Adobe Illustrator 19.0.0, SVG Export Plug-In . SVG Version: 6.00 Build 0)  -->
<svg version="1.1" id="Layer_1" xmlns="http://www.w3.org/2000/svg" xmlns:xlink="http://www.w3.org/1999/xlink" x="0px" y="0px"
	 viewBox="0 0 512 512" style="enable-background:new 0 0 512 512;" xml:space="preserve" fill="#ffffff">
<g>
	<g>
		<g>
			<path d="M234.214,239.829l-17.067-8.533c-4.224-2.099-9.336-0.393-11.452,3.823c-2.108,4.215-0.393,9.335,3.823,11.443
				l17.067,8.542c1.22,0.606,2.526,0.896,3.806,0.896c3.132,0,6.144-1.724,7.646-4.719
				C240.145,247.066,238.43,241.937,234.214,239.829z"/>
			<path d="M264.533,358.4c-4.71,0-8.533,3.823-8.533,8.533v136.533c0,4.71,3.823,8.533,8.533,8.533c4.71,0,8.533-3.823,8.533-8.533
				V366.933C273.067,362.223,269.244,358.4,264.533,358.4z"/>
			<path d="M149.018,231.731l-46.396,29.517c-3.977,2.526-5.154,7.799-2.62,11.776c1.621,2.56,4.386,3.951,7.211,3.951
				c1.562,0,3.149-0.427,4.565-1.331l46.404-29.508c3.977-2.534,5.146-7.808,2.62-11.785
				C158.268,230.374,152.994,229.205,149.018,231.731z"/>
			<path d="M93.867,136.533H230.4c4.71,0,8.533-3.823,8.533-8.533s-3.823-8.533-8.533-8.533H93.867c-14.114,0-25.6,11.486-25.6,25.6
				V281.6c0,14.114,11.486,25.6,25.6,25.6H230.4c4.71,0,8.533-3.823,8.533-8.533s-3.823-8.533-8.533-8.533H93.867
				c-4.702,0-8.533-3.831-8.533-8.533V162.133l88.747,66.56c1.51,1.135,3.319,1.707,5.12,1.707c1.647,0,3.294-0.478,4.736-1.434
				l51.2-34.133c3.917-2.611,4.975-7.91,2.364-11.836c-2.62-3.917-7.919-4.992-11.836-2.364l-46.174,30.78l-93.286-69.956
				C87.578,138.564,90.47,136.533,93.867,136.533z"/>
			<path d="M298.667,358.4c-4.71,0-8.533,3.823-8.533,8.533v136.533c0,4.71,3.823,8.533,8.533,8.533s8.533-3.823,8.533-8.533
				V366.933C307.2,362.223,303.377,358.4,298.667,358.4z"/>
			<path d="M375.467,0H136.533C61.252,0,0,61.252,0,136.533V332.8c0,4.71,3.823,8.533,8.533,8.533H230.4
				c4.71,0,8.533-3.823,8.533-8.533c0-4.71-3.823-8.533-8.533-8.533H17.067V136.533c0-65.877,53.589-119.467,119.467-119.467
				C201.293,17.067,256,67.866,256,128v204.8c0,4.71,3.823,8.533,8.533,8.533h238.933c4.71,0,8.533-3.823,8.533-8.533V136.533
				C512,61.252,450.748,0,375.467,0z M494.933,324.267H273.067V128c0-46.746-28.373-88.593-69.513-110.933h171.913
				c65.877,0,119.467,53.589,119.467,119.467V324.267z"/>
			<path d="M426.667,172.237V59.733c0-4.71-3.823-8.533-8.533-8.533H298.667c-4.71,0-8.533,3.823-8.533,8.533v51.2
				c0,4.71,3.823,8.533,8.533,8.533H384c4.71,0,8.533-3.823,8.533-8.533S388.71,102.4,384,102.4h-76.8V68.267h102.4v103.97
				c-9.916,3.541-17.067,12.919-17.067,24.03c0,14.114,11.486,25.6,25.6,25.6s25.6-11.486,25.6-25.6
				C443.733,185.156,436.582,175.778,426.667,172.237z M418.133,204.8c-4.702,0-8.533-3.831-8.533-8.533
				c0-4.702,3.831-8.533,8.533-8.533s8.533,3.831,8.533,8.533C426.667,200.969,422.835,204.8,418.133,204.8z"/>
		</g>
	</g>
</g>
<g>
</g>
<g>
</g>
<g>
</g>
<g>
</g>
<g>
</g>
<g>
</g>
<g>
</g>
<g>
</g>
<g>
</g>
<g>
</g>
<g>
</g>
<g>
</g>
<g>
</g>
<g>
</g>
<g>
</g>
</svg>
